Coordinates
version=1
nRows=14
nColumns=28
inDegrees=yes

Units are S.I. units (second, meters, Newtons, ...)
Angles are in degrees.

endheader
time	pelvis_tilt	pelvis_list	pelvis_rotation	pelvis_tx	pelvis_ty	pelvis_tz	hip_flexion_r	hip_adduction_r	hip_rotation_r	knee_angle_r	ankle_angle_r	subtalar_angle_r	mtp_angle_r	hip_flexion_l	hip_adduction_l	hip_rotation_l	knee_angle_l	socket_flexion	socket_adduction	socket_rotation	socket_tx	socket_ty	socket_tz	foot_flex	lumbar_extension	lumbar_bending	lumbar_rotation
      0.62083333	      2.08901687	     -3.83901426	      1.93804560	     -0.00194661	      0.98562788	      0.29592430	     24.90752679	      4.50403103	    -11.09667682	    -11.56428674	      8.29010765	    -10.23596389	     14.56155796	    -23.70912047	     -3.92525214	     14.94773789	     -7.16890100	      0.00000000	      0.00000000	      0.00000000	      0.00000000	     -0.01029724	      0.00000000	      7.83637310	    -15.03092319	      4.42058335	      2.19561681
      0.62500000	      2.04703173	     -3.73885124	      1.90640709	     -0.00196962	      0.98555582	      0.29600240	     25.02431954	      4.39173087	    -11.12022654	    -11.72212288	      8.31793702	    -10.15448907	     14.51546463	    -23.66258626	     -3.81217872	     14.95684822	     -7.17551015	      0.00000000	      0.00000000	      0.00000000	      0.00000000	     -0.01017027	      0.00000000	      7.90007649	    -14.98278230	      4.29665117	      2.17749918
      0.62916667	      2.06989682	     -3.84546051	      1.97823996	      0.00410828	      0.98492162	      0.29598275	     25.06253542	      4.51025899	    -10.90329830	    -12.30317834	      8.02432181	    -10.13213940	     14.56279438	    -23.83053142	     -3.89802567	     15.02281606	     -7.57794930	      0.00000000	      0.00000000	      0.00000000	      0.00000000	     -0.01006692	      0.00000000	      7.75756478	    -14.97803604	      4.56297689	      2.18987860
      0.63333333	      2.13838293	     -3.98263563	      1.84500360	      0.01041957	      0.98428441	      0.29634646	     25.16686154	      4.70283261	    -10.86816627	    -13.12136300	      7.26003106	    -10.31827832	     14.77711115	    -24.13037356	     -3.94572368	     14.75957700	     -7.90096549	      0.00000000	      0.00000000	      0.00000000	      0.00000000	     -0.00987012	      0.00000000	      7.64556435	    -14.98652187	      4.81875870	      2.22208550
      0.63750000	      2.16691914	     -4.05112566	      1.92828226	      0.01684936	      0.98387301	      0.29636622	     25.11197961	      4.77863711	    -10.67449002	    -13.60380685	      7.05613368	    -10.31435630	     14.80269335	    -24.30310029	     -3.99339471	     14.79560563	     -8.31857264	      0.00000000	      0.00000000	      0.00000000	      0.00000000	     -0.00943499	      0.00000000	      7.53126630	    -14.87341816	      5.00125971	      2.24413521
      0.64166667	      2.25443152	     -4.21709117	      1.66399907	      0.02288404	      0.98323037	      0.29688250	     25.32446840	      5.01555855	    -10.63047927	    -14.66648551	      6.13569385	    -10.57717352	     14.97090243	    -24.58457852	     -4.00370695	     14.44258761	     -8.72057472	      0.00000000	      0.00000000	      0.00000000	      0.00000000	     -0.00942325	      0.00000000	      7.35945587	    -15.01913363	      5.30513417	      2.30136283
      0.64583333	      2.30757380	     -4.33958772	      1.67117911	      0.02892887	      0.98282562	      0.29705427	     25.34307916	      5.17188430	    -10.39470521	    -15.30789540	      5.76490589	    -10.64275469	     15.06132584	    -24.70293142	     -4.06823370	     14.39987561	     -9.27284398	      0.00000000	      0.00000000	      0.00000000	      0.00000000	     -0.00932457	      0.00000000	      7.15970614	    -15.04288885	      5.56973245	      2.36787850
      0.65000000	      2.38699330	     -4.55552403	      1.29813980	      0.03533806	      0.98238813	      0.29780522	     25.25741662	      5.60083912	     -9.74132805	    -15.71461418	      3.24971949	    -12.71501396	     20.92172482	    -25.00588143	     -4.08282093	     13.81428644	     -9.67697294	      0.00000000	      0.00000000	      0.00000000	      0.00000000	     -0.00905597	      0.00000000	      6.96190605	    -15.06417081	      5.82287717	      2.89266579
      0.65416667	      2.45205166	     -4.69949385	      1.19840957	      0.04157318	      0.98204972	      0.29811323	     25.31787881	      5.76745309	     -9.68014069	    -16.50708873	      2.82591112	    -12.75225163	     20.88669007	    -25.15277372	     -4.11863879	     13.60016858	    -10.23506534	      0.00000000	      0.00000000	      0.00000000	      0.00000000	     -0.00888455	      0.00000000	      6.70928633	    -15.08517268	      6.09158752	      2.93088438
      0.65833333	      2.50470060	     -4.83014759	      1.20089786	      0.04769602	      0.98184354	      0.29827949	     25.30843041	      5.90084807	     -9.52631673	    -17.14345102	      2.58778640	    -12.74270976	     20.87374663	    -25.20242565	     -4.17684719	     13.53215946	    -10.90830619	      0.00000000	      0.00000000	      0.00000000	      0.00000000	     -0.00873700	      0.00000000	      6.43785416	    -15.10904240	      6.35721655	      2.96424256
      0.66250000	      2.57384916	     -4.97710695	      1.14875521	      0.05384764	      0.98167009	      0.29850106	     25.32895167	      6.05521862	     -9.43301282	    -17.88800832	      2.27920282	    -12.75794404	     20.85056352	    -25.26538154	     -4.22314703	     13.34943049	    -11.59651783	      0.00000000	      0.00000000	      0.00000000	      0.00000000	     -0.00861538	      0.00000000	      6.13519650	    -15.13380575	      6.64052080	      2.99924110
      0.66666667	      2.63514407	     -5.19430986	      0.85753339	      0.06028126	      0.98135186	      0.29907062	     25.45803496	      6.32028515	     -9.47636860	    -18.85315563	      1.74046761	    -12.86963599	     20.82023558	    -25.43170245	     -4.25075485	     12.84287669	    -12.17415891	      0.00000000	      0.00000000	      0.00000000	      0.00000000	     -0.00848113	      0.00000000	      5.82541333	    -15.13618442	      6.94628112	      3.10571914
      0.67083333	      2.61191564	     -5.49973910	      0.49927347	      0.06656354	      0.98105593	      0.29981165	     25.46867282	      6.82073486	     -8.90012209	    -19.37684852	      1.16975070	    -13.46326022	     21.08886380	    -25.46053638	     -4.34194848	     12.19407253	    -12.84031127	      0.00000000	      0.00000000	      0.00000000	      0.00000000	     -0.00847965	      0.00000000	      5.46977456	    -15.06387048	      7.27003886	      3.81977723
      0.67500000	      2.68620363	     -5.64622331	      0.41468301	      0.07269437	      0.98099349	      0.30008184	     25.48054009	      6.96342153	     -8.86760974	    -20.14548370	      0.92066308	    -13.52715159	     21.09275451	    -25.46456478	     -4.37089392	     11.96099869	    -13.64068760	      0.00000000	      0.00000000	      0.00000000	      0.00000000	     -0.00838327	      0.00000000	      5.11252392	    -15.10581240	      7.55211909	      3.79038925
